<mxfile host="app.diagrams.net" agent="Mozilla/5.0 (Windows NT 10.0; Win64; x64) AppleWebKit/537.36 (KHTML, like Gecko) Chrome/137.0.0.0 Safari/537.36" version="27.1.6">
  <diagram name="Page-1" id="GvkGYSjLHH_tjVlKErvT">
    <mxGraphModel dx="1117" dy="596" grid="1" gridSize="10" guides="1" tooltips="1" connect="1" arrows="1" fold="1" page="1" pageScale="1" pageWidth="827" pageHeight="1169" math="0" shadow="0">
      <root>
        <mxCell id="0" />
        <mxCell id="1" parent="0" />
        <mxCell id="A80enYxry9DeLMq-qeu0-2" value="" style="endArrow=none;html=1;rounded=0;" parent="1" edge="1">
          <mxGeometry width="50" height="50" relative="1" as="geometry">
            <mxPoint x="110" y="950" as="sourcePoint" />
            <mxPoint x="110" y="210" as="targetPoint" />
          </mxGeometry>
        </mxCell>
        <mxCell id="A80enYxry9DeLMq-qeu0-3" value="" style="endArrow=none;html=1;rounded=0;" parent="1" edge="1">
          <mxGeometry width="50" height="50" relative="1" as="geometry">
            <mxPoint x="110" y="950" as="sourcePoint" />
            <mxPoint x="650" y="950" as="targetPoint" />
          </mxGeometry>
        </mxCell>
        <mxCell id="A80enYxry9DeLMq-qeu0-4" value="" style="endArrow=none;html=1;rounded=0;" parent="1" edge="1">
          <mxGeometry width="50" height="50" relative="1" as="geometry">
            <mxPoint x="110" y="210" as="sourcePoint" />
            <mxPoint x="650" y="950" as="targetPoint" />
            <Array as="points">
              <mxPoint x="420" y="210" />
              <mxPoint x="650" y="230" />
            </Array>
          </mxGeometry>
        </mxCell>
        <mxCell id="A80enYxry9DeLMq-qeu0-5" value="" style="endArrow=none;html=1;rounded=0;" parent="1" edge="1">
          <mxGeometry width="50" height="50" relative="1" as="geometry">
            <mxPoint x="420" y="590" as="sourcePoint" />
            <mxPoint x="420" y="590" as="targetPoint" />
            <Array as="points">
              <mxPoint x="420" y="860" />
              <mxPoint x="400" y="860" />
              <mxPoint x="400" y="590" />
            </Array>
          </mxGeometry>
        </mxCell>
        <mxCell id="A80enYxry9DeLMq-qeu0-6" value="" style="endArrow=none;html=1;rounded=0;" parent="1" edge="1">
          <mxGeometry width="50" height="50" relative="1" as="geometry">
            <mxPoint x="490" y="950" as="sourcePoint" />
            <mxPoint x="650" y="730" as="targetPoint" />
            <Array as="points">
              <mxPoint x="490" y="730" />
            </Array>
          </mxGeometry>
        </mxCell>
        <mxCell id="A80enYxry9DeLMq-qeu0-7" value="" style="endArrow=none;html=1;rounded=0;" parent="1" edge="1">
          <mxGeometry width="50" height="50" relative="1" as="geometry">
            <mxPoint x="110" y="440" as="sourcePoint" />
            <mxPoint x="650" y="510" as="targetPoint" />
            <Array as="points">
              <mxPoint x="400" y="440" />
              <mxPoint x="400" y="510" />
            </Array>
          </mxGeometry>
        </mxCell>
        <mxCell id="A80enYxry9DeLMq-qeu0-8" value="" style="endArrow=none;html=1;rounded=0;" parent="1" edge="1">
          <mxGeometry width="50" height="50" relative="1" as="geometry">
            <mxPoint x="420" y="950" as="sourcePoint" />
            <mxPoint x="400" y="950" as="targetPoint" />
            <Array as="points">
              <mxPoint x="420" y="920" />
              <mxPoint x="400" y="920" />
            </Array>
          </mxGeometry>
        </mxCell>
        <mxCell id="A80enYxry9DeLMq-qeu0-9" value="" style="endArrow=none;html=1;rounded=0;" parent="1" edge="1">
          <mxGeometry width="50" height="50" relative="1" as="geometry">
            <mxPoint x="400" y="410" as="sourcePoint" />
            <mxPoint x="400" y="210" as="targetPoint" />
          </mxGeometry>
        </mxCell>
        <mxCell id="A80enYxry9DeLMq-qeu0-10" value="" style="endArrow=none;html=1;rounded=0;" parent="1" edge="1">
          <mxGeometry width="50" height="50" relative="1" as="geometry">
            <mxPoint x="650" y="490" as="sourcePoint" />
            <mxPoint x="420" y="210" as="targetPoint" />
            <Array as="points">
              <mxPoint x="420" y="490" />
            </Array>
          </mxGeometry>
        </mxCell>
        <mxCell id="A80enYxry9DeLMq-qeu0-11" value="" style="endArrow=none;html=1;rounded=0;" parent="1" edge="1">
          <mxGeometry width="50" height="50" relative="1" as="geometry">
            <mxPoint x="110" y="680" as="sourcePoint" />
            <mxPoint x="110" y="660" as="targetPoint" />
            <Array as="points">
              <mxPoint x="250" y="680" />
              <mxPoint x="250" y="710" />
              <mxPoint x="260" y="710" />
              <mxPoint x="260" y="660" />
            </Array>
          </mxGeometry>
        </mxCell>
        <mxCell id="A80enYxry9DeLMq-qeu0-12" value="" style="endArrow=none;html=1;rounded=0;" parent="1" edge="1">
          <mxGeometry width="50" height="50" relative="1" as="geometry">
            <mxPoint x="400" y="680" as="sourcePoint" />
            <mxPoint x="400" y="660" as="targetPoint" />
            <Array as="points">
              <mxPoint x="340" y="680" />
              <mxPoint x="340" y="660" />
            </Array>
          </mxGeometry>
        </mxCell>
        <mxCell id="A80enYxry9DeLMq-qeu0-13" value="" style="endArrow=none;html=1;rounded=0;" parent="1" edge="1">
          <mxGeometry width="50" height="50" relative="1" as="geometry">
            <mxPoint x="250" y="950" as="sourcePoint" />
            <mxPoint x="260" y="950" as="targetPoint" />
            <Array as="points">
              <mxPoint x="250" y="920" />
              <mxPoint x="260" y="920" />
            </Array>
          </mxGeometry>
        </mxCell>
        <mxCell id="A80enYxry9DeLMq-qeu0-14" value="" style="rounded=0;whiteSpace=wrap;html=1;fillColor=none;" parent="1" vertex="1">
          <mxGeometry x="250" y="760" width="10" height="10" as="geometry" />
        </mxCell>
        <mxCell id="A80enYxry9DeLMq-qeu0-17" value="" style="rounded=0;whiteSpace=wrap;html=1;fillColor=none;" parent="1" vertex="1">
          <mxGeometry x="250" y="850" width="10" height="10" as="geometry" />
        </mxCell>
        <mxCell id="A80enYxry9DeLMq-qeu0-19" value="" style="rounded=0;whiteSpace=wrap;html=1;fillColor=#fff2cc;strokeColor=#d6b656;" parent="1" vertex="1">
          <mxGeometry x="240" y="920" width="10" height="20" as="geometry" />
        </mxCell>
        <mxCell id="A80enYxry9DeLMq-qeu0-21" value="" style="curved=1;endArrow=classic;html=1;rounded=0;" parent="1" edge="1">
          <mxGeometry width="50" height="50" relative="1" as="geometry">
            <mxPoint x="260" y="930" as="sourcePoint" />
            <mxPoint x="370" y="650" as="targetPoint" />
            <Array as="points">
              <mxPoint x="340" y="710" />
              <mxPoint x="270" y="610" />
            </Array>
          </mxGeometry>
        </mxCell>
        <mxCell id="A80enYxry9DeLMq-qeu0-24" value="" style="endArrow=none;html=1;rounded=0;" parent="1" edge="1">
          <mxGeometry width="50" height="50" relative="1" as="geometry">
            <mxPoint x="420" y="630" as="sourcePoint" />
            <mxPoint x="420" y="640" as="targetPoint" />
            <Array as="points">
              <mxPoint x="490" y="630" />
              <mxPoint x="490" y="640" />
            </Array>
          </mxGeometry>
        </mxCell>
        <mxCell id="A80enYxry9DeLMq-qeu0-25" value="" style="rounded=0;whiteSpace=wrap;html=1;" parent="1" vertex="1">
          <mxGeometry x="420" y="650" width="20" height="40" as="geometry" />
        </mxCell>
        <mxCell id="A80enYxry9DeLMq-qeu0-26" value="" style="endArrow=none;html=1;rounded=0;" parent="1" edge="1">
          <mxGeometry width="50" height="50" relative="1" as="geometry">
            <mxPoint x="650" y="640" as="sourcePoint" />
            <mxPoint x="650" y="630" as="targetPoint" />
            <Array as="points">
              <mxPoint x="610" y="640" />
              <mxPoint x="610" y="630" />
            </Array>
          </mxGeometry>
        </mxCell>
        <mxCell id="hWLRX_vKty0JmUvWkbHJ-2" value="" style="curved=1;endArrow=classic;html=1;rounded=0;startArrow=classic;startFill=1;" edge="1" parent="1">
          <mxGeometry width="50" height="50" relative="1" as="geometry">
            <mxPoint x="650" y="700" as="sourcePoint" />
            <mxPoint x="450" y="910" as="targetPoint" />
            <Array as="points">
              <mxPoint x="470" y="690" />
              <mxPoint x="440" y="760" />
            </Array>
          </mxGeometry>
        </mxCell>
      </root>
    </mxGraphModel>
  </diagram>
</mxfile>
